<?xml version="1.0" encoding="UTF-8"?>
<svg width="512" height="512" viewBox="8 6 70 52" fill="none" xmlns="http://www.w3.org/2000/svg">
  <title>Young AI Explorers</title>
  <rect x="8" y="6" width="70" height="52" fill="#FAF8F5"/>
  <g opacity="0.9">
    <path d="M73 17c4-1 8 2 9 7 1 6-2 13-6 17" stroke="#C9A04E" stroke-width="1.2" stroke-linecap="round" stroke-linejoin="round"/>
    <path d="M50 26c2-11 12-17 22-13 7 3 11 9 11 17 0 4-2 7-4 8-6-9-16-13-26-9-3 1-5 4-5 7z" fill="#C9A04E" fill-opacity="0.14" stroke="#C9A04E" stroke-width="1.2" stroke-linejoin="round"/>
    <path d="M46 34c0-10 8-18 18-18 8 0 14 6 14 16 0 8-6 14-14 14s-18-4-18-12z" stroke="#4A2D6E" stroke-width="1.2" stroke-linecap="round" stroke-linejoin="round"/>
    <ellipse cx="54" cy="32.5" rx="1.35" ry="1.55" fill="#4A2D6E"/>
    <ellipse cx="64" cy="32.5" rx="1.35" ry="1.55" fill="#4A2D6E"/>
    <path d="M54 38.5c3 1.5 7 1.5 10 0" stroke="#4A2D6E" stroke-width="1.2" stroke-linecap="round"/>
  </g>
  <path d="M16 28c0-13 11-23 24-23s24 10 24 23c-5-7-13-11-22-11s-19 4-24 11z" fill="#C9A04E" fill-opacity="0.14" stroke="#C9A04E" stroke-width="1.2" stroke-linejoin="round"/>
  <path d="M22 14c6-4 14-4 20 0M20 20c7-3 15-3 22 0" stroke="#C9A04E" stroke-opacity="0.5" stroke-width="0.85" stroke-linecap="round"/>
  <path d="M16 36c0-12 9-22 22-22s22 10 22 22c0 10-8 18-18 18h-8c-10 0-18-8-18-18z" stroke="#4A2D6E" stroke-width="1.2" stroke-linecap="round" stroke-linejoin="round"/>
  <ellipse cx="28.5" cy="34.5" rx="1.4" ry="1.6" fill="#4A2D6E"/>
  <ellipse cx="40.5" cy="34.5" rx="1.4" ry="1.6" fill="#4A2D6E"/>
  <path d="M27 41c4 2 10 2 14 0" stroke="#4A2D6E" stroke-width="1.2" stroke-linecap="round"/>
</svg>
